<?xml version="1.0" encoding="UTF-8" standalone="no"?><!--Created with Inkscape (http://www.inkscape.org/)--><svg width="40" height="40" viewBox="0 0 10.583 10.583" inkscape:version="1.1-rc (52f87abb86, 2021-05-02)" sodipodi:docname="facebook.svg" xmlns:inkscape="http://www.inkscape.org/namespaces/inkscape" xmlns:sodipodi="http://sodipodi.sourceforge.net/DTD/sodipodi-0.dtd" xmlns="http://www.w3.org/2000/svg"><sodipodi:namedview pagecolor="#ffffff" bordercolor="#666666" borderopacity="1" objecttolerance="10" gridtolerance="10" guidetolerance="10" inkscape:pageshadow="2" inkscape:pageopacity="0" inkscape:pagecheckerboard="0" inkscape:document-units="mm" showgrid="false" fit-margin-top="0" fit-margin-left="0" fit-margin-right="0" fit-margin-bottom="0" inkscape:zoom=".62" inkscape:cx="134.67" inkscape:cy="249.18" inkscape:window-width="1872" inkscape:window-height="1016" inkscape:window-x="1920" inkscape:window-y="27" inkscape:window-maximized="1" inkscape:current-layer="layer1"/><g style="display:inline;fill:gray" inkscape:label="Layer 1" inkscape:groupmode="layer"><path d="M11.072 5.57c0-3.077-2.479-5.571-5.536-5.571-3.06 0-5.538 2.494-5.538 5.572 0 2.78 2.025 5.084 4.671 5.502V7.18H3.264V5.57h1.407V4.343c0-1.396.827-2.167 2.091-2.167.606 0 1.24.11 1.24.11v1.37h-.699c-.687 0-.901.43-.901.87V5.57h1.534l-.245 1.61h-1.29v3.892c2.646-.418 4.671-2.722 4.671-5.502z" style="fill:gray;stroke-width:.692047" transform="translate(.002 .001) scale(.95568)"/></g></svg>