<?xml version="1.0" encoding="UTF-8" standalone="no"?>
<svg
   sodipodi:docname="logo.svg"
   inkscape:version="1.1-rc (52f87abb86, 2021-05-02)"
   id="svg20"
   version="1.1"
   viewBox="0 0 388.39941 97.157356"
   height="97.157356"
   width="388.39941"
   xmlns:inkscape="http://www.inkscape.org/namespaces/inkscape"
   xmlns:sodipodi="http://sodipodi.sourceforge.net/DTD/sodipodi-0.dtd"
   xmlns="http://www.w3.org/2000/svg"
   xmlns:svg="http://www.w3.org/2000/svg"
   xmlns:rdf="http://www.w3.org/1999/02/22-rdf-syntax-ns#"
   xmlns:cc="http://creativecommons.org/ns#"
   xmlns:dc="http://purl.org/dc/elements/1.1/">
  <title
     id="title117">Website template</title>
  <defs
     id="defs14">
    <inkscape:path-effect
       effect="powerstroke"
       id="path-effect55946"
       is_visible="true"
       lpeversion="1"
       offset_points="3,1"
       not_jump="false"
       sort_points="true"
       interpolator_type="CubicBezierJohan"
       interpolator_beta="0.2"
       start_linecap_type="zerowidth"
       linejoin_type="extrp_arc"
       miter_limit="4"
       scale_width="1"
       end_linecap_type="zerowidth" />
    <inkscape:path-effect
       effect="bspline"
       id="path-effect55944"
       is_visible="true"
       lpeversion="1"
       weight="33.333333"
       steps="2"
       helper_size="0"
       apply_no_weight="true"
       apply_with_weight="true"
       only_selected="false" />
    <inkscape:path-effect
       effect="skeletal"
       id="path-effect55747"
       is_visible="true"
       lpeversion="1"
       pattern="M 0,18.867925 C 0,8.4528302 8.4528302,0 18.867925,0 c 10.415094,0 18.867924,8.4528302 18.867924,18.867925 0,10.415094 -8.45283,18.867924 -18.867924,18.867924 C 8.4528302,37.735849 0,29.283019 0,18.867925 Z"
       copytype="single_stretched"
       prop_scale="1"
       scale_y_rel="false"
       spacing="0"
       normal_offset="0"
       tang_offset="0"
       prop_units="false"
       vertical_pattern="false"
       hide_knot="false"
       fuse_tolerance="0" />
    <inkscape:path-effect
       effect="bspline"
       id="path-effect55745"
       is_visible="true"
       lpeversion="1"
       weight="33.333333"
       steps="2"
       helper_size="0"
       apply_no_weight="true"
       apply_with_weight="true"
       only_selected="false" />
    <inkscape:path-effect
       effect="bspline"
       id="path-effect55548"
       is_visible="true"
       lpeversion="1"
       weight="33.333333"
       steps="2"
       helper_size="0"
       apply_no_weight="true"
       apply_with_weight="true"
       only_selected="false" />
  </defs>
  <sodipodi:namedview
     inkscape:guide-bbox="true"
     showguides="false"
     units="px"
     inkscape:window-maximized="1"
     inkscape:window-y="0"
     inkscape:window-x="0"
     inkscape:window-height="1043"
     inkscape:window-width="1920"
     showgrid="true"
     inkscape:document-rotation="0"
     inkscape:current-layer="layer1"
     inkscape:document-units="px"
     inkscape:cy="195"
     inkscape:cx="257.5"
     inkscape:zoom="1"
     inkscape:pageshadow="2"
     inkscape:pageopacity="0.0"
     borderopacity="1.0"
     bordercolor="#666666"
     pagecolor="#ffffff"
     id="base"
     objecttolerance="10.0"
     gridtolerance="10000"
     guidetolerance="10000"
     inkscape:pagecheckerboard="0"
     inkscape:lockguides="true"
     fit-margin-top="0"
     fit-margin-left="0"
     fit-margin-right="0"
     fit-margin-bottom="0">
    <sodipodi:guide
       id="guide100"
       orientation="1,0"
       position="32,0"
       inkscape:locked="true" />
    <sodipodi:guide
       id="guide101"
       orientation="1,0"
       position="992,0"
       inkscape:locked="true" />
    <sodipodi:guide
       id="guide102"
       orientation="1,0"
       position="47,0"
       inkscape:locked="true" />
    <sodipodi:guide
       id="guide103"
       orientation="1,0"
       position="97,0"
       inkscape:locked="true" />
    <sodipodi:guide
       id="guide105"
       orientation="1,0"
       position="127,0"
       inkscape:locked="true" />
    <sodipodi:guide
       id="guide106"
       orientation="1,0"
       position="177,0"
       inkscape:locked="true" />
    <sodipodi:guide
       id="guide108"
       orientation="1,0"
       position="207,0"
       inkscape:locked="true" />
    <sodipodi:guide
       id="guide109"
       orientation="1,0"
       position="257,0"
       inkscape:locked="true" />
    <sodipodi:guide
       id="guide111"
       orientation="1,0"
       position="287,0"
       inkscape:locked="true" />
    <sodipodi:guide
       id="guide112"
       orientation="1,0"
       position="337,0"
       inkscape:locked="true" />
    <sodipodi:guide
       id="guide114"
       orientation="1,0"
       position="367,0"
       inkscape:locked="true" />
    <sodipodi:guide
       id="guide115"
       orientation="1,0"
       position="417,0"
       inkscape:locked="true" />
    <sodipodi:guide
       id="guide117"
       orientation="1,0"
       position="447,0"
       inkscape:locked="true" />
    <sodipodi:guide
       id="guide118"
       orientation="1,0"
       position="497,0"
       inkscape:locked="true" />
    <sodipodi:guide
       id="guide120"
       orientation="1,0"
       position="527,0"
       inkscape:locked="true" />
    <sodipodi:guide
       id="guide121"
       orientation="1,0"
       position="577,0"
       inkscape:locked="true" />
    <sodipodi:guide
       id="guide123"
       orientation="1,0"
       position="607,0"
       inkscape:locked="true" />
    <sodipodi:guide
       id="guide124"
       orientation="1,0"
       position="657,0"
       inkscape:locked="true" />
    <sodipodi:guide
       id="guide126"
       orientation="1,0"
       position="687,0"
       inkscape:locked="true" />
    <sodipodi:guide
       id="guide127"
       orientation="1,0"
       position="737,0"
       inkscape:locked="true" />
    <sodipodi:guide
       id="guide129"
       orientation="1,0"
       position="767,0"
       inkscape:locked="true" />
    <sodipodi:guide
       id="guide130"
       orientation="1,0"
       position="817,0"
       inkscape:locked="true" />
    <sodipodi:guide
       id="guide132"
       orientation="1,0"
       position="847,0"
       inkscape:locked="true" />
    <sodipodi:guide
       id="guide133"
       orientation="1,0"
       position="897,0"
       inkscape:locked="true" />
    <sodipodi:guide
       id="guide135"
       orientation="1,0"
       position="927,0"
       inkscape:locked="true" />
    <sodipodi:guide
       id="guide136"
       orientation="1,0"
       position="977,0"
       inkscape:locked="true" />
    <inkscape:grid
       type="xygrid"
       id="grid37042"
       visible="false"
       originx="-94.95867"
       originy="-48.667564" />
  </sodipodi:namedview>
  <metadata
     id="metadata17">
    <rdf:RDF>
      <cc:Work
         rdf:about="">
        <dc:title>Website template</dc:title>
      </cc:Work>
    </rdf:RDF>
  </metadata>
  <g
     id="layer1"
     inkscape:groupmode="layer"
     inkscape:label="Layer 1"
     transform="translate(-94.958671,-48.667565)">
    <g
       id="g43548"
       transform="matrix(1.0163426,0,0,1.0163426,-0.766612,-0.50835289)">
      <g
         id="g73816">
        <g
           aria-label="Yannick"
           id="text3622"
           style="font-weight:bold;font-size:74.6667px;line-height:1.25;font-family:MonteCarlo;-inkscape-font-specification:'MonteCarlo Bold';font-variant-ligatures:none;fill:#000000"
           transform="matrix(0.65873885,0,0,0.65873885,105.12406,27.930661)">
          <path
             d="m 120.53137,109.50607 q -1.344,0 -2.83733,-0.448 -1.41867,-0.448 -2.38933,-1.344 -0.97067,-0.896 -0.97067,-2.16533 0,-0.896 0.37333,-1.568 0.14934,-0.224 0.37334,-0.52267 0.29866,-0.224 0.448,-0.224 0.29866,0 0.224,0.59733 -0.224,1.94134 1.64266,3.06134 1.94134,1.19467 4.25601,1.19467 2.688,0 5.67466,-1.64267 2.98667,-1.568 5.89867,-5.30134 2.68801,-3.509332 5.15201,-7.690668 2.464,-4.181335 4.55467,-8.512004 2.16533,-4.405335 3.88266,-8.36267 1.71734,-4.032002 2.98667,-7.168004 l 1.86667,-4.629335 q -2.61334,4.330668 -5.67467,8.512004 -2.98667,4.181335 -6.34667,7.616003 -3.36,3.434669 -7.09334,5.45067 -3.73333,2.090667 -7.69067,2.090667 -4.032,0 -6.12267,-2.314667 -2.016,-2.240001 -2.016,-5.89867 0,-1.12 0.224,-2.464001 0.672,-4.181335 2.38934,-7.914671 1.792,-3.733335 4.032,-7.24267 2.31467,-3.509335 4.55467,-7.01867 1.19467,-1.941334 2.76267,-4.554668 1.568,-2.688002 2.688,-5.600003 1.19466,-2.986668 1.19466,-5.67467 0,-1.269333 -0.37333,-2.464001 -0.29867,-1.194667 -1.12,-2.165334 -1.12,-1.418667 -3.06133,-2.016001 -1.94134,-0.597334 -4.48001,-0.597334 -4.33066,0 -8.81067,1.941335 -4.48,1.866667 -8.288,5.077335 -3.808,3.136002 -6.12267,6.944004 -1.19467,2.016001 -1.94133,4.181335 -0.746672,2.165334 -0.746672,4.330669 0,0.522667 0.07467,1.12 0.149333,0.597334 0.224,1.194667 0.522662,2.090668 2.016002,3.136002 1.49333,1.045334 3.36,1.045334 2.16533,0 4.256,-1.418668 2.16533,-1.493334 3.43467,-3.882668 1.26933,-2.389335 1.26933,-5.152002 0,-1.642668 -0.59733,-3.434669 -0.14934,-0.597333 -0.52267,-1.12 -0.37333,-0.597334 -0.74667,-0.672001 -0.37333,-0.149333 -0.37333,-0.373333 0.0747,-0.224 0.74667,-0.224 1.41867,0 2.24,1.642667 0.896,1.568001 1.12,2.837335 0.0747,0.373333 0.0747,0.746667 0.0747,0.373333 0.0747,0.746667 0,2.688001 -1.344,5.226669 -1.344,2.538668 -3.50933,4.032002 -2.98667,2.165334 -6.19734,2.165334 -2.38933,0 -4.40533,-1.269334 -1.941336,-1.344 -2.76267,-4.032002 -0.522667,-1.568 -0.522667,-3.434668 0,-2.165334 0.672001,-4.330669 0.672,-2.165334 1.717334,-4.032001 2.464002,-4.480003 6.645332,-7.616004 4.256,-3.210668 9.25867,-4.928002 5.07734,-1.717335 9.93067,-1.717335 3.06134,0 5.52534,0.896001 2.53867,0.896 3.95734,2.762668 1.12,1.418667 1.568,2.986668 0.448,1.493334 0.448,3.136001 0,2.762668 -1.04534,5.749336 -1.04533,2.912002 -2.53867,5.67467 -1.49333,2.688001 -2.83733,4.853335 -2.24,3.733336 -4.704,8.064004 -2.38934,4.256002 -4.10667,8.362671 -1.64267,4.032002 -1.64267,7.317337 0,3.584002 1.41867,4.928002 1.49333,1.418668 3.65867,1.418668 3.50933,0 7.09333,-2.464002 3.65867,-2.464001 7.16801,-6.421336 3.50933,-4.032002 6.64533,-8.736004 3.13601,-4.704002 5.67467,-9.258671 2.53867,-4.554669 4.10667,-8.064004 1.49334,-3.360002 3.43467,-6.645337 1.94133,-3.360001 4.256,-5.824002 2.38934,-2.464002 5.07734,-3.061335 0.224,-0.07467 0.448,-0.07467 0.224,0 0.37333,0 1.04534,0 1.568,0.522667 0.59734,0.522667 0.59734,1.120001 0,0.597333 -0.52267,1.194667 -0.52267,0.522667 -1.568,0.522667 -2.464,0.07467 -4.40534,1.642667 -1.94133,1.493334 -3.43467,3.808002 -1.49333,2.314668 -2.53866,4.853336 -1.04534,2.464001 -1.792,4.480002 -2.31467,6.496003 -4.25601,13.066673 -1.86666,6.496003 -4.256,13.066673 -2.38933,6.496003 -6.272,12.992006 -4.10667,6.79467 -9.48267,11.05067 -5.37601,4.33067 -12.84268,4.33067 z"
             id="path55480"
             style="fill:#000000" />
          <path
             d="m 174.58992,85.762062 q -2.38934,0 -3.28534,-1.493334 -0.896,-1.568001 -0.896,-3.434668 0,-0.373334 0.0747,-1.269334 0.14933,-0.970667 0.29866,-1.792001 -1.04533,1.418667 -2.53866,3.136001 -1.41867,1.717335 -2.91201,2.912002 -2.38933,1.941334 -4.33066,1.941334 -1.86667,0 -2.91201,-1.568001 -0.97066,-1.568 -0.97066,-3.957335 0,-3.061335 1.344,-6.197336 1.344,-3.136002 3.50933,-5.89867 2.24,-2.837334 4.92801,-4.853335 1.568,-1.120001 3.808,-1.792001 2.31466,-0.746667 4.62933,-0.746667 2.61334,0 4.55467,0.821334 2.016,0.746667 2.76267,2.165334 -1.568,2.016001 -3.21067,5.002669 -1.64267,2.912001 -2.83733,5.301336 -0.82134,1.642667 -1.792,4.106668 -0.97067,2.389335 -0.97067,4.106669 0,0.746667 0.37333,1.493334 0.37334,0.746667 1.41867,0.746667 1.19467,0 2.31467,-0.896 1.12,-0.896001 1.86666,-1.792001 1.71734,-1.866668 3.13601,-4.106669 1.41866,-2.240001 2.83733,-4.778669 0.224,-0.298667 0.448,-0.298667 0.29867,0 0.29867,0.448001 0,0.373333 -0.14934,0.597333 -1.26933,2.464001 -2.83733,4.928003 -1.568,2.464001 -3.73334,4.629335 -1.04533,1.045334 -2.464,1.792001 -1.41866,0.746667 -2.76266,0.746667 z m -11.94668,-2.314668 q 1.41867,0 3.06134,-1.493334 1.71733,-1.568001 3.28533,-3.733335 1.64267,-2.240001 2.912,-4.256002 1.344,-2.090668 2.09067,-3.210668 1.568,-2.464001 2.912,-4.106669 1.344,-1.642667 4.18134,-2.538668 0.14933,0 0.224,0 0.14933,-0.07467 0.29867,-0.07467 -0.672,-1.045334 -2.24001,-1.568001 -1.568,-0.522667 -3.06133,-0.522667 -2.31467,0 -4.48,1.269334 -2.16534,1.269334 -3.95734,3.210668 -1.71733,2.016001 -3.36,4.405336 -1.64267,2.389334 -2.688,4.853335 -0.97067,2.464001 -0.97067,4.704002 0,1.194668 0.37334,2.165335 0.448,0.896 1.41866,0.896 z"
             id="path55482"
             style="fill:#000000" />
          <path
             d="m 199.08048,85.687395 q -2.16534,0 -3.43467,-1.344 -1.19467,-1.344001 -1.19467,-3.360002 0,-0.970667 0.37333,-2.240001 1.04534,-3.285335 3.28534,-6.496003 2.31467,-3.285335 3.808,-6.496003 0.52267,-1.045334 0.52267,-1.866668 0,-0.821333 -0.52267,-1.194667 -0.448,-0.448 -1.12,-0.448 -0.97067,0 -2.464,0.821334 -1.41867,0.746667 -3.28534,2.912001 -1.12,1.344001 -2.53866,3.285335 -1.41867,1.941334 -2.31467,3.509335 -1.49334,2.538668 -2.688,5.152002 -1.19467,2.538668 -2.09067,4.704003 -0.74667,1.717334 -1.792,2.240001 -1.04533,0.448 -2.016,0.373333 -0.97067,-0.07467 -1.49334,0 2.09067,-4.106668 4.10667,-8.661337 2.016,-4.554669 3.43467,-9.109338 0.672,-2.090668 1.12,-4.032002 0.448,-2.016001 0.37334,-2.613335 V 60.67405 q 0,-0.597334 0.59733,-0.298667 0.97067,0.522667 1.344,1.568001 0.37333,0.970667 0.37333,2.240001 0,1.418667 -0.37333,3.061335 -0.37333,1.568001 -0.896,2.837335 0.97067,-1.344001 2.09067,-2.688002 1.12,-1.418667 2.464,-2.688001 1.568,-1.568001 3.36,-2.688001 1.792,-1.194668 3.88267,-1.194668 2.016,0 2.912,0.896001 0.97067,0.896 0.97067,2.389334 0,1.568001 -0.896,3.584002 -0.97067,2.314668 -2.38934,4.629336 -1.344,2.314667 -2.464,4.480002 -0.224,0.448 -0.74667,1.418667 -0.448,0.896001 -0.82133,2.016001 -0.14933,0.522667 -0.29867,1.120001 -0.14933,0.522667 -0.14933,1.12 0,0.746667 0.29867,1.418668 0.37333,0.597333 1.344,0.597333 1.26933,0 2.38933,-0.821334 1.19467,-0.896 2.016,-1.866667 1.71734,-1.866668 3.136,-4.106669 1.49334,-2.314668 2.91201,-4.853335 0.224,-0.298667 0.29866,-0.298667 0.29867,0 0.29867,0.672 0,0.448 -0.14933,0.672 -1.34401,2.464002 -2.83734,4.853336 -1.49333,2.314668 -3.65867,4.480002 -0.97066,0.970667 -2.24,1.717334 -1.26933,0.746667 -2.83733,0.746667 z"
             id="path55484"
             style="fill:#000000" />
          <path
             d="m 223.4217,85.687395 q -2.16533,0 -3.43467,-1.344 -1.19466,-1.344001 -1.19466,-3.360002 0,-0.970667 0.37333,-2.240001 1.04533,-3.285335 3.28533,-6.496003 2.31467,-3.285335 3.80801,-6.496003 0.52266,-1.045334 0.52266,-1.866668 0,-0.821333 -0.52266,-1.194667 -0.448,-0.448 -1.12,-0.448 -0.97067,0 -2.46401,0.821334 -1.41866,0.746667 -3.28533,2.912001 -1.12,1.344001 -2.53867,3.285335 -1.41867,1.941334 -2.31467,3.509335 -1.49333,2.538668 -2.688,5.152002 -1.19466,2.538668 -2.09067,4.704003 -0.74666,1.717334 -1.792,2.240001 -1.04533,0.448 -2.016,0.373333 -0.97066,-0.07467 -1.49333,0 2.09067,-4.106668 4.10667,-8.661337 2.016,-4.554669 3.43467,-9.109338 0.672,-2.090668 1.12,-4.032002 0.448,-2.016001 0.37333,-2.613335 V 60.67405 q 0,-0.597334 0.59733,-0.298667 0.97067,0.522667 1.344,1.568001 0.37334,0.970667 0.37334,2.240001 0,1.418667 -0.37334,3.061335 -0.37333,1.568001 -0.896,2.837335 0.97067,-1.344001 2.09067,-2.688002 1.12,-1.418667 2.464,-2.688001 1.568,-1.568001 3.36,-2.688001 1.792,-1.194668 3.88267,-1.194668 2.016,0 2.912,0.896001 0.97067,0.896 0.97067,2.389334 0,1.568001 -0.896,3.584002 -0.97067,2.314668 -2.38933,4.629336 -1.344,2.314667 -2.46401,4.480002 -0.224,0.448 -0.74666,1.418667 -0.448,0.896001 -0.82134,2.016001 -0.14933,0.522667 -0.29866,1.120001 -0.14934,0.522667 -0.14934,1.12 0,0.746667 0.29867,1.418668 0.37333,0.597333 1.344,0.597333 1.26934,0 2.38934,-0.821334 1.19466,-0.896 2.016,-1.866667 1.71733,-1.866668 3.136,-4.106669 1.49333,-2.314668 2.912,-4.853335 0.224,-0.298667 0.29867,-0.298667 0.29866,0 0.29866,0.672 0,0.448 -0.14933,0.672 -1.344,2.464002 -2.83733,4.853336 -1.49334,2.314668 -3.65867,4.480002 -0.97067,0.970667 -2.24,1.717334 -1.26934,0.746667 -2.83734,0.746667 z"
             id="path55486"
             style="fill:#000000" />
          <path
             d="m 236.11491,85.687395 q -2.09067,0 -3.06133,-1.344 -0.97067,-1.418668 -0.97067,-3.434669 0,-0.597333 0.0747,-1.194667 0.14933,-0.672 0.29866,-1.344 0.82134,-2.986669 2.53867,-6.645337 1.792,-3.733335 3.43467,-6.645336 0.97067,-1.642668 1.792,-2.314668 0.82133,-0.746667 1.792,-1.045334 0.97067,-0.373334 2.31467,-0.821334 0.37333,-0.149333 0.74667,-0.224 0.37333,-0.07467 0.82133,-0.149333 -1.49333,1.493334 -3.06133,3.584001 -1.49334,2.090668 -3.28534,5.749336 -0.97067,1.941335 -1.94133,4.330669 -0.896,2.389335 -1.568,4.480002 -0.672,2.090668 -0.74667,3.285335 -0.0747,1.418668 0.37333,2.016001 0.448,0.597334 1.19467,0.597334 1.26933,0 2.38933,-0.896001 1.19467,-0.896 2.09067,-1.866667 1.64267,-1.866668 3.06134,-4.106669 1.49333,-2.240001 2.912,-4.778669 0.224,-0.298667 0.37333,-0.298667 0.29867,0 0.29867,0.448001 0,0.373333 -0.14934,0.597333 -1.344,2.464001 -2.83733,4.928003 -1.49333,2.464001 -3.65867,4.629335 -0.97067,0.970667 -2.31467,1.717334 -1.26933,0.746667 -2.912,0.746667 z m 9.10934,-29.344014 q -0.82133,0 -1.41867,-0.597333 -0.52266,-0.597334 -0.52266,-1.418668 0,-1.045333 0.82133,-1.866667 0.896,-0.821334 1.94133,-0.970667 0.82134,0 1.344,0.597333 0.59734,0.522667 0.59734,1.418668 0,0.970667 -0.82134,1.941334 -0.82133,0.896 -1.94133,0.896 z"
             id="path55488"
             style="fill:#000000" />
          <path
             d="m 253.51217,86.060729 q -3.88267,0 -5.52533,-2.314668 -1.64267,-2.389334 -1.64267,-5.600003 0,-3.509335 1.49333,-7.093336 1.12,-2.688002 2.912,-5.002669 1.792,-2.389335 4.25601,-3.882669 2.53866,-1.493334 5.52533,-1.493334 2.24,0 3.43467,1.045334 1.26933,1.045334 1.26933,2.912001 0,0.597334 -0.14933,1.269334 -0.0747,0.672001 -0.448,1.493334 -0.52267,1.344001 -1.344,2.389335 -0.82133,1.045334 -1.86667,1.642667 -0.52266,0.298667 -1.19466,0.298667 -0.52267,0 -0.97067,-0.298667 -0.448,-0.298667 -0.448,-0.970667 0,-1.194667 1.26933,-2.538668 1.344,-1.418667 3.43467,-1.493334 0.37333,-0.970667 0.37333,-1.717334 0,-1.194667 -0.74666,-2.016001 -0.74667,-0.896 -2.31467,-0.896 -1.94134,0 -3.808,1.493334 -1.86667,1.418667 -3.36,3.808001 -1.41867,2.314668 -2.31467,4.928003 -0.448,1.194667 -0.82134,3.061335 -0.37333,1.792 -0.37333,3.584001 0,2.314668 0.97067,4.181336 1.04533,1.792001 3.88267,1.792001 2.016,0 3.808,-1.120001 1.792,-1.194667 3.21067,-2.912001 1.49333,-1.717335 2.61333,-3.509335 1.19467,-1.866668 1.94133,-3.285335 0.0747,-0.298667 0.37334,-0.298667 0.37333,0 0.37333,0.597334 0,0.298666 -0.224,0.672 -1.568,2.762668 -3.36,5.376002 -1.792,2.538668 -4.256,4.256002 -2.464,1.642668 -5.97334,1.642668 z"
             id="path55490"
             style="fill:#000000" />
          <path
             d="m 281.28815,85.911395 c -2.59947,0.205923 -4.81475,-1.685926 -5.66913,-4.041626 -1.27615,-3.534984 -1.30503,-7.553068 -0.17238,-11.125048 0.44884,-1.352754 2.2272,-3.891102 3.52684,-3.201331 -0.34965,2.929882 4.30427,1.884874 5.74933,0.672 1.66637,-1.119713 3.19788,-3.421654 2.086,-5.404002 -1.89933,-1.66031 -4.54305,-0.02098 -6.342,1.038336 -5.51668,3.985138 -9.22755,9.934384 -12.24213,15.926174 -1.32871,1.841581 -1.01104,5.405049 -3.96521,5.472836 -1.44055,0.158386 -2.39856,0.02416 -1.30783,-1.607667 2.66811,-7.585532 5.79406,-15.005398 8.99179,-22.380688 4.27106,-9.374666 8.95002,-19.035167 16.87263,-25.902272 2.39446,-1.894357 5.0718,-3.776903 8.15209,-4.233401 2.45153,-0.53658 4.25937,1.958791 3.34134,4.200002 -1.56646,5.439473 -5.61814,9.670229 -9.39546,13.706589 -5.03471,5.031559 -10.50235,9.617025 -16.19655,13.882757 -1.47666,3.203915 -2.79343,6.478981 -4.03201,9.781338 3.47587,-4.89828 7.64807,-10.01444 13.6783,-11.693214 2.29176,-0.848443 6.42778,-0.358019 5.94741,2.938543 -0.30326,4.265161 -4.90839,6.736546 -8.81067,6.578837 -1.49254,0.282015 -3.4965,-2.310392 -3.087,0.511 -0.4126,3.806224 -0.52346,7.857519 0.97766,11.449672 0.73623,2.169569 3.55832,2.713045 5.18234,1.191167 3.62112,-2.859454 5.87855,-7.003083 8.064,-10.976005 1.42255,0.49201 151.45739,5.233489 150.88086,6.518403 -1.92051,3.212431 -156.75564,4.951798 -160.35769,6.405936 -0.60307,0.197791 -1.23832,0.292323 -1.87253,0.291664 z m -5.89867,-24.490678 c 7.13186,-5.38756 13.50823,-11.739332 19.28209,-18.546509 2.05382,-2.6372 4.28776,-5.485776 4.61125,-8.930837 0.10383,-2.98998 -3.70238,-2.041564 -5.11467,-0.709334 -6.12452,5.280087 -10.3664,12.338263 -14.26805,19.327301 -1.59103,2.907399 -3.10847,5.855998 -4.51062,8.859379 z"
             id="path55492"
             sodipodi:nodetypes="ccccccccccccccccccccccccccccccccc"
             style="fill:#000000" />
        </g>
        <text
           xml:space="preserve"
           style="font-style:normal;font-variant:normal;font-weight:normal;font-stretch:normal;font-size:39.3568px;line-height:1.25;font-family:'Fugaz One';-inkscape-font-specification:'Fugaz One';font-variant-ligatures:none;fill:#4d4d4d"
           x="93.202118"
           y="132.52744"
           id="text7892"><tspan
             sodipodi:role="line"
             id="tspan7890"
             x="93.202118"
             y="132.52744">Sereckissy-Namboy</tspan></text>
      </g>
    </g>
  </g>
</svg>
