<?xml version="1.0" encoding="UTF-8" standalone="no"?><svg sodipodi:docname="logo.svg" inkscape:version="1.1-rc (52f87abb86, 2021-05-02)" height="97.157" width="388.399" xmlns:inkscape="http://www.inkscape.org/namespaces/inkscape" xmlns:sodipodi="http://sodipodi.sourceforge.net/DTD/sodipodi-0.dtd" xmlns="http://www.w3.org/2000/svg"><sodipodi:namedview inkscape:guide-bbox="true" showguides="false" units="px" inkscape:window-maximized="1" inkscape:window-y="0" inkscape:window-x="0" inkscape:window-height="1043" inkscape:window-width="1920" showgrid="true" inkscape:document-rotation="0" inkscape:current-layer="layer1" inkscape:document-units="px" inkscape:cy="195" inkscape:cx="257.5" inkscape:zoom="1" inkscape:pageshadow="2" inkscape:pageopacity="0" borderopacity="1" bordercolor="#666666" pagecolor="#ffffff" objecttolerance="10" gridtolerance="10000" guidetolerance="10000" inkscape:pagecheckerboard="0" inkscape:lockguides="true" fit-margin-top="0" fit-margin-left="0" fit-margin-right="0" fit-margin-bottom="0"><sodipodi:guide orientation="1,0" position="32,0" inkscape:locked="true"/><sodipodi:guide orientation="1,0" position="992,0" inkscape:locked="true"/><sodipodi:guide orientation="1,0" position="47,0" inkscape:locked="true"/><sodipodi:guide orientation="1,0" position="97,0" inkscape:locked="true"/><sodipodi:guide orientation="1,0" position="127,0" inkscape:locked="true"/><sodipodi:guide orientation="1,0" position="177,0" inkscape:locked="true"/><sodipodi:guide orientation="1,0" position="207,0" inkscape:locked="true"/><sodipodi:guide orientation="1,0" position="257,0" inkscape:locked="true"/><sodipodi:guide orientation="1,0" position="287,0" inkscape:locked="true"/><sodipodi:guide orientation="1,0" position="337,0" inkscape:locked="true"/><sodipodi:guide orientation="1,0" position="367,0" inkscape:locked="true"/><sodipodi:guide orientation="1,0" position="417,0" inkscape:locked="true"/><sodipodi:guide orientation="1,0" position="447,0" inkscape:locked="true"/><sodipodi:guide orientation="1,0" position="497,0" inkscape:locked="true"/><sodipodi:guide orientation="1,0" position="527,0" inkscape:locked="true"/><sodipodi:guide orientation="1,0" position="577,0" inkscape:locked="true"/><sodipodi:guide orientation="1,0" position="607,0" inkscape:locked="true"/><sodipodi:guide orientation="1,0" position="657,0" inkscape:locked="true"/><sodipodi:guide orientation="1,0" position="687,0" inkscape:locked="true"/><sodipodi:guide orientation="1,0" position="737,0" inkscape:locked="true"/><sodipodi:guide orientation="1,0" position="767,0" inkscape:locked="true"/><sodipodi:guide orientation="1,0" position="817,0" inkscape:locked="true"/><sodipodi:guide orientation="1,0" position="847,0" inkscape:locked="true"/><sodipodi:guide orientation="1,0" position="897,0" inkscape:locked="true"/><sodipodi:guide orientation="1,0" position="927,0" inkscape:locked="true"/><sodipodi:guide orientation="1,0" position="977,0" inkscape:locked="true"/><inkscape:grid type="xygrid" visible="false" originx="-94.959" originy="-48.668"/></sodipodi:namedview><g inkscape:groupmode="layer" inkscape:label="Layer 1"><g aria-label="Yannick" style="font-weight:700;font-size:74.6667px;line-height:1.25;font-family:MonteCarlo;-inkscape-font-specification:'MonteCarlo Bold';font-variant-ligatures:none;fill:#000"><path d="M120.531 109.506q-1.344 0-2.837-.448-1.419-.448-2.39-1.344-.97-.896-.97-2.165 0-.896.373-1.568.15-.224.374-.523.298-.224.448-.224.298 0 .224.597-.224 1.942 1.642 3.062 1.942 1.194 4.256 1.194 2.688 0 5.675-1.642 2.987-1.568 5.899-5.302 2.688-3.509 5.152-7.69 2.464-4.182 4.554-8.512 2.166-4.406 3.883-8.363 1.717-4.032 2.987-7.168l1.866-4.63q-2.613 4.331-5.674 8.513-2.987 4.181-6.347 7.616-3.36 3.434-7.093 5.45-3.734 2.091-7.691 2.091-4.032 0-6.123-2.315-2.016-2.24-2.016-5.898 0-1.12.224-2.464.672-4.182 2.39-7.915 1.792-3.733 4.032-7.243 2.314-3.509 4.554-7.018 1.195-1.942 2.763-4.555 1.568-2.688 2.688-5.6 1.195-2.987 1.195-5.675 0-1.269-.374-2.464-.298-1.194-1.12-2.165-1.12-1.419-3.061-2.016-1.941-.597-4.48-.597-4.33 0-8.81 1.941-4.48 1.867-8.289 5.077-3.808 3.136-6.122 6.944-1.195 2.016-1.942 4.182-.746 2.165-.746 4.33 0 .523.074 1.12.15.598.224 1.195.523 2.09 2.016 3.136 1.494 1.045 3.36 1.045 2.166 0 4.256-1.418 2.166-1.494 3.435-3.883 1.27-2.39 1.27-5.152 0-1.643-.598-3.435-.15-.597-.523-1.12-.373-.597-.746-.672-.374-.149-.374-.373.075-.224.747-.224 1.419 0 2.24 1.643.896 1.568 1.12 2.837.075.373.075.747.074.373.074.746 0 2.688-1.344 5.227t-3.509 4.032q-2.987 2.165-6.197 2.165-2.39 0-4.406-1.269-1.94-1.344-2.762-4.032-.523-1.568-.523-3.435 0-2.165.672-4.33.672-2.166 1.717-4.032 2.464-4.48 6.646-7.616 4.256-3.211 9.258-4.928 5.078-1.718 9.931-1.718 3.061 0 5.525.896 2.54.896 3.958 2.763 1.12 1.419 1.568 2.987.448 1.493.448 3.136 0 2.762-1.046 5.749-1.045 2.912-2.538 5.675-1.494 2.688-2.838 4.853-2.24 3.733-4.704 8.064-2.389 4.256-4.106 8.363-1.643 4.032-1.643 7.317 0 3.584 1.419 4.928 1.493 1.419 3.658 1.419 3.51 0 7.094-2.464 3.658-2.464 7.168-6.422 3.51-4.032 6.645-8.736 3.136-4.704 5.675-9.258 2.538-4.555 4.106-8.064 1.494-3.36 3.435-6.646 1.941-3.36 4.256-5.824 2.39-2.464 5.077-3.061.224-.075.448-.075h.374q1.045 0 1.568.523.597.523.597 1.12 0 .597-.523 1.195-.522.522-1.568.522-2.464.075-4.405 1.643-1.941 1.493-3.435 3.808-1.493 2.315-2.538 4.853-1.046 2.464-1.792 4.48-2.315 6.496-4.256 13.067-1.867 6.496-4.256 13.067-2.39 6.496-6.272 12.992-4.107 6.794-9.483 11.05-5.376 4.331-12.843 4.331zM174.59 85.762q-2.39 0-3.285-1.493-.896-1.568-.896-3.435 0-.373.074-1.27.15-.97.299-1.791-1.045 1.418-2.539 3.136-1.418 1.717-2.912 2.912-2.39 1.941-4.33 1.941-1.867 0-2.912-1.568-.971-1.568-.971-3.957 0-3.062 1.344-6.198 1.344-3.136 3.51-5.898 2.24-2.838 4.927-4.854 1.568-1.12 3.808-1.792 2.315-.746 4.63-.746 2.613 0 4.554.821 2.016.747 2.763 2.165-1.568 2.016-3.21 5.003-1.643 2.912-2.838 5.301-.821 1.643-1.792 4.107-.97 2.39-.97 4.107 0 .746.373 1.493.373.747 1.418.747 1.195 0 2.315-.896 1.12-.896 1.867-1.792 1.717-1.867 3.136-4.107 1.418-2.24 2.837-4.779.224-.298.448-.298.299 0 .299.448 0 .373-.15.597-1.269 2.464-2.837 4.928-1.568 2.464-3.733 4.63-1.046 1.045-2.464 1.791-1.42.747-2.763.747zm-11.947-2.315q1.419 0 3.062-1.493 1.717-1.568 3.285-3.733 1.643-2.24 2.912-4.256 1.344-2.09 2.09-3.21 1.569-2.465 2.913-4.108 1.344-1.642 4.18-2.538h.225q.15-.075.299-.075-.672-1.045-2.24-1.568-1.568-.523-3.062-.523-2.314 0-4.48 1.27-2.165 1.269-3.957 3.21-1.717 2.016-3.36 4.406-1.643 2.39-2.688 4.853-.97 2.464-.97 4.704 0 1.195.373 2.165.448.896 1.418.896z" style="fill:#000" transform="matrix(.6695 0 0 .6695 11.117 -20.789)"/><path d="M199.08 85.687q-2.165 0-3.434-1.344-1.195-1.344-1.195-3.36 0-.97.373-2.24 1.046-3.285 3.286-6.496 2.314-3.285 3.808-6.496.522-1.045.522-1.866 0-.822-.522-1.195-.448-.448-1.12-.448-.97 0-2.464.821-1.419.747-3.286 2.912-1.12 1.344-2.538 3.286-1.419 1.941-2.315 3.51-1.493 2.538-2.688 5.151-1.195 2.539-2.09 4.704-.747 1.717-1.793 2.24-1.045.448-2.016.373-.97-.074-1.493 0 2.09-4.106 4.107-8.66 2.016-4.556 3.434-9.11.672-2.09 1.12-4.032.448-2.016.374-2.614v-.149q0-.597.597-.299.97.523 1.344 1.568.373.971.373 2.24 0 1.42-.373 3.062-.373 1.568-.896 2.837.97-1.344 2.09-2.688 1.12-1.419 2.465-2.688 1.568-1.568 3.36-2.688 1.792-1.195 3.882-1.195 2.016 0 2.912.896.971.896.971 2.39 0 1.568-.896 3.584-.97 2.314-2.39 4.63-1.343 2.314-2.463 4.48-.224.447-.747 1.418-.448.896-.821 2.016-.15.522-.299 1.12-.15.522-.15 1.12 0 .746.3 1.418.373.598 1.343.598 1.27 0 2.39-.822 1.194-.896 2.016-1.866 1.717-1.867 3.136-4.107 1.493-2.315 2.912-4.853.224-.299.298-.299.3 0 .3.672 0 .448-.15.672-1.344 2.464-2.838 4.853-1.493 2.315-3.658 4.48-.97.971-2.24 1.718-1.27.746-2.838.746z" style="fill:#000" transform="matrix(.6695 0 0 .6695 11.117 -20.789)"/><path d="M223.422 85.687q-2.166 0-3.435-1.344-1.195-1.344-1.195-3.36 0-.97.374-2.24 1.045-3.285 3.285-6.496 2.315-3.285 3.808-6.496.523-1.045.523-1.866 0-.822-.523-1.195-.448-.448-1.12-.448-.97 0-2.464.821-1.419.747-3.285 2.912-1.12 1.344-2.539 3.286-1.419 1.941-2.315 3.51-1.493 2.538-2.688 5.151-1.194 2.539-2.09 4.704-.747 1.717-1.792 2.24-1.046.448-2.016.373-.971-.074-1.494 0 2.091-4.106 4.107-8.66 2.016-4.556 3.435-9.11.672-2.09 1.12-4.032.448-2.016.373-2.614v-.149q0-.597.597-.299.971.523 1.344 1.568.374.971.374 2.24 0 1.42-.374 3.062-.373 1.568-.896 2.837.971-1.344 2.091-2.688 1.12-1.419 2.464-2.688 1.568-1.568 3.36-2.688 1.792-1.195 3.883-1.195 2.016 0 2.912.896.97.896.97 2.39 0 1.568-.896 3.584-.97 2.314-2.389 4.63-1.344 2.314-2.464 4.48-.224.447-.747 1.418-.448.896-.821 2.016-.15.522-.299 1.12-.149.522-.149 1.12 0 .746.299 1.418.373.598 1.344.598 1.269 0 2.389-.822 1.195-.896 2.016-1.866 1.717-1.867 3.136-4.107 1.493-2.315 2.912-4.853.224-.299.299-.299.298 0 .298.672 0 .448-.149.672-1.344 2.464-2.837 4.853-1.494 2.315-3.659 4.48-.97.971-2.24 1.718-1.27.746-2.837.746z" style="fill:#000" transform="matrix(.6695 0 0 .6695 11.117 -20.789)"/><path d="M236.115 85.687q-2.09 0-3.061-1.344-.971-1.418-.971-3.434 0-.598.075-1.195l.298-1.344q.822-2.987 2.539-6.645 1.792-3.734 3.435-6.646.97-1.642 1.792-2.314.82-.747 1.792-1.046.97-.373 2.314-.82.374-.15.747-.225.373-.075.821-.15-1.493 1.494-3.061 3.585-1.493 2.09-3.285 5.75-.971 1.94-1.942 4.33-.896 2.39-1.568 4.48-.672 2.09-.746 3.285-.075 1.419.373 2.016t1.195.597q1.269 0 2.389-.896 1.195-.896 2.09-1.866 1.643-1.867 3.062-4.107 1.493-2.24 2.912-4.779.224-.298.373-.298.299 0 .299.448 0 .373-.15.597-1.343 2.464-2.837 4.928-1.493 2.464-3.658 4.63-.971.97-2.315 1.717-1.27.746-2.912.746zm9.11-29.344q-.822 0-1.42-.597-.522-.597-.522-1.419 0-1.045.821-1.866.896-.822 1.942-.971.82 0 1.344.597.597.523.597 1.419 0 .97-.821 1.941-.822.896-1.942.896z" style="fill:#000" transform="matrix(.6695 0 0 .6695 11.117 -20.789)"/><path d="M253.512 86.06q-3.883 0-5.525-2.314-1.643-2.39-1.643-5.6 0-3.51 1.493-7.093 1.12-2.688 2.912-5.003 1.792-2.39 4.257-3.883 2.538-1.493 5.525-1.493 2.24 0 3.435 1.045 1.269 1.046 1.269 2.912 0 .598-.15 1.27-.074.672-.447 1.493-.523 1.344-1.344 2.39-.822 1.045-1.867 1.642-.523.299-1.195.299-.522 0-.97-.299-.448-.299-.448-.97 0-1.195 1.269-2.54 1.344-1.418 3.435-1.493.373-.97.373-1.717 0-1.195-.747-2.016-.746-.896-2.314-.896-1.942 0-3.808 1.493-1.867 1.42-3.36 3.808-1.42 2.315-2.315 4.928-.448 1.195-.821 3.062-.374 1.792-.374 3.584 0 2.314.97 4.181 1.046 1.792 3.884 1.792 2.016 0 3.808-1.12 1.792-1.195 3.21-2.912 1.494-1.717 2.614-3.51 1.194-1.866 1.94-3.285.076-.298.374-.298.374 0 .374.597 0 .299-.224.672-1.568 2.763-3.36 5.376-1.792 2.539-4.256 4.256-2.464 1.643-5.974 1.643z" style="fill:#000" transform="matrix(.6695 0 0 .6695 11.117 -20.789)"/><path d="M281.288 85.911c-2.6.206-4.815-1.686-5.669-4.041-1.276-3.535-1.305-7.553-.172-11.125.448-1.353 2.227-3.891 3.526-3.202-.35 2.93 4.305 1.885 5.75.672 1.666-1.12 3.198-3.421 2.086-5.404-1.9-1.66-4.543-.02-6.342 1.039-5.517 3.985-9.228 9.934-12.242 15.926-1.329 1.841-1.011 5.405-3.966 5.473-1.44.158-2.398.024-1.307-1.608 2.668-7.585 5.794-15.005 8.991-22.38 4.271-9.375 8.95-19.036 16.873-25.903 2.395-1.894 5.072-3.777 8.152-4.233 2.452-.537 4.26 1.958 3.341 4.2-1.566 5.44-5.618 9.67-9.395 13.706-5.035 5.032-10.502 9.617-16.197 13.883-1.476 3.204-2.793 6.479-4.032 9.781 3.476-4.898 7.649-10.014 13.679-11.693 2.292-.848 6.428-.358 5.947 2.939-.303 4.265-4.908 6.736-8.81 6.579-1.493.282-3.497-2.31-3.087.51-.413 3.807-.524 7.858.977 11.45.736 2.17 3.558 2.713 5.183 1.191 3.62-2.86 5.878-7.003 8.064-10.976 1.422.492 151.457 5.234 150.88 6.519-1.92 3.212-156.755 4.952-160.357 6.406a5.997 5.997 0 0 1-1.873.291zm-5.899-24.49c7.132-5.388 13.509-11.74 19.283-18.547 2.053-2.637 4.287-5.486 4.61-8.93.105-2.99-3.702-2.042-5.114-.71-6.124 5.28-10.366 12.338-14.268 19.327a155.536 155.536 0 0 0-4.51 8.86z" sodipodi:nodetypes="ccccccccccccccccccccccccccccccccc" style="fill:#000" transform="matrix(.6695 0 0 .6695 11.117 -20.789)"/></g><text xml:space="preserve" style="font-style:normal;font-variant:normal;font-weight:400;font-stretch:normal;font-size:39.3568px;line-height:1.25;font-family:'Fugaz One';-inkscape-font-specification:'Fugaz One';font-variant-ligatures:none;fill:#4d4d4d" x="93.202" y="132.527" transform="matrix(1.01634 0 0 1.01634 -95.725 -49.176)"><tspan sodipodi:role="line" x="93.202" y="132.527">Sereckissy-Namboy</tspan></text></g></svg>